<svg width="24" height="24" viewBox="0 0 24 24" fill="none" xmlns="http://www.w3.org/2000/svg">
<path fillRule="evenodd" clipRule="evenodd" d="M22.6667 12C22.6667 17.891 17.891 22.6667 12 22.6667C6.10896 22.6667 1.33333 17.891 1.33333 12C1.33333 6.10896 6.10896 1.33333 12 1.33333C17.891 1.33333 22.6667 6.10896 22.6667 12ZM24 12C24 18.6274 18.6274 24 12 24C5.37258 24 0 18.6274 0 12C0 5.37258 5.37258 0 12 0C18.6274 0 24 5.37258 24 12ZM6.99327 6.81538C7.18854 6.62012 7.50513 6.62014 7.70038 6.8154L12.1538 11.2692L16.6075 6.81581C16.8028 6.62056 17.1193 6.62057 17.3146 6.81584C17.5098 7.01111 17.5098 7.32769 17.3146 7.52295L12.8609 11.9763L17.3144 16.4301C17.5096 16.6253 17.5096 16.9419 17.3143 17.1372C17.1191 17.3324 16.8025 17.3324 16.6072 17.1372L12.1538 12.6834L7.69989 17.1369C7.50463 17.3322 7.18804 17.3322 6.99279 17.1369C6.79753 16.9416 6.79754 16.625 6.99281 16.4298L11.4467 11.9762L6.99325 7.52249C6.79799 7.32722 6.79801 7.01063 6.99327 6.81538Z" fill="#FB2047"/>
</svg>
