<svg width="25" height="25" viewBox="0 0 25 25" fill="none" xmlns="http://www.w3.org/2000/svg">
<g clipPath="url(#clip0_332_99)">
<path fillRule="evenodd" clipRule="evenodd" d="M13.9744 10.0867L11.7133 7.96782C12.0948 7.87204 12.4879 7.82277 12.8828 7.82123C13.6316 7.81013 14.373 7.96225 15.0488 8.26567C15.7246 8.56909 16.3164 9.01556 16.7778 9.57006C17.2393 10.1246 17.5578 10.772 17.7084 11.4616C17.859 12.1513 17.8377 12.8643 17.646 13.5449L15.392 11.4193L13.9744 10.0867ZM4.9088 7.36147L1.98145 4.61625L3.51955 3.15701L22.8556 21.3475L21.3246 22.7934L17.5963 19.2885C14.4137 20.4636 10.8649 20.4021 7.73059 19.1175C4.59624 17.8329 2.13304 15.4306 0.882812 12.4388C1.71669 10.4379 3.10716 8.68429 4.9088 7.36147ZM8.36775 10.6131L6.45399 8.82071C5.10191 9.77495 4.00698 11.0142 3.2573 12.4388C4.13525 14.1316 5.50221 15.5579 7.20187 16.5548C8.90154 17.5517 10.8653 18.0788 12.8686 18.0759C13.8819 18.0735 14.8903 17.9435 15.8669 17.6894L14.7966 16.6832L14.754 16.6433C14.0115 16.9398 13.2024 17.0585 12.3991 16.9888C11.5957 16.9191 10.8234 16.6631 10.1512 16.2438C9.47895 15.8245 8.92789 15.255 8.54737 14.5863C8.16685 13.9175 7.96875 13.1705 7.97082 12.4122C7.96733 11.7929 8.10258 11.1799 8.36775 10.6131ZM18.5591 8.31107C16.8571 7.31239 14.8892 6.78682 12.8829 6.79511C12.1537 6.80277 11.4271 6.87866 10.7139 7.02166L8.91357 5.32921C12.0392 4.37922 15.4324 4.58335 18.4037 5.90015C21.3751 7.21695 23.7018 9.54766 24.9112 12.4188C24.1658 14.2117 22.975 15.811 21.4381 17.083L19.8716 15.6371C20.974 14.7534 21.8694 13.6644 22.5013 12.4388C21.6279 10.7408 20.2612 9.30976 18.5591 8.31107Z" fill="#C2C7CC"/>
</g>
<defs>
<clipPath id="clip0_332_99">
<rect width="24" height="24" fill="white" transform="translate(0.882812 0.776367)"/>
</clipPath>
</defs>
</svg>
